<?xml version="1.0" standalone="no"?>
<!DOCTYPE svg PUBLIC "-//W3C//DTD SVG 20010904//EN"
 "http://www.w3.org/TR/2001/REC-SVG-20010904/DTD/svg10.dtd">
<svg version="1.0" xmlns="http://www.w3.org/2000/svg"
 width="64.000000pt" height="35.000000pt" viewBox="0 0 64.000000 35.000000"
 preserveAspectRatio="xMidYMid meet">

<g transform="translate(0.000000,35.000000) scale(0.100000,-0.100000)"
fill="#000000" stroke="none">
<path d="M160 272 c-25 -9 -46 -21 -47 -27 -2 -15 -23 -18 -23 -3 0 7 -8 1
-18 -13 -15 -24 -18 -49 -13 -103 0 -8 9 -17 19 -21 20 -8 154 -36 158 -32 7
7 -27 37 -56 51 l-35 15 34 -2 c26 -2 35 3 42 20 6 16 4 21 -4 18 -7 -3 -23 4
-37 15 l-25 21 30 -7 c17 -4 34 -11 39 -15 6 -5 18 -9 27 -9 9 0 20 -7 23 -16
9 -25 7 -72 -4 -79 -31 -19 4 -25 146 -25 89 0 153 4 150 9 -3 5 1 11 9 15 21
8 20 66 0 66 -10 0 -15 7 -13 18 2 11 -8 22 -29 32 -18 8 -33 21 -33 28 0 15
0 15 -39 -4 -18 -9 -35 -13 -38 -10 -4 3 -1 6 5 6 23 0 12 37 -15 50 -45 21
-200 23 -253 2z m-40 -76 c0 -21 -19 -30 -26 -12 -3 8 -13 12 -22 9 -15 -4
-15 -3 -2 6 22 15 50 13 50 -3z m259 -36 c8 -4 33 -6 55 -4 23 2 34 1 26 -2
-17 -7 -40 -34 -40 -46 0 -4 30 -9 68 -9 l67 -1 -50 -9 c-27 -5 -65 -6 -83 -3
-32 6 -32 7 -17 30 18 28 20 40 3 26 -20 -16 -92 0 -96 21 -3 15 1 17 25 11
15 -4 34 -10 42 -14z m-232 -56 c-3 -3 -12 -4 -19 -1 -8 3 -5 6 6 6 11 1 17
-2 13 -5z"/>
<path d="M231 152 c-14 -26 -3 -64 18 -60 11 2 16 14 16 37 0 39 -19 52 -34
23z"/>
</g>
</svg>
